<?xml version="1.0" standalone="no"?>
<!DOCTYPE svg PUBLIC "-//W3C//DTD SVG 20010904//EN"
 "http://www.w3.org/TR/2001/REC-SVG-20010904/DTD/svg10.dtd">
<svg version="1.0" xmlns="http://www.w3.org/2000/svg"
 width="220.000000pt" height="300.000000pt" viewBox="0 0 220.000000 300.000000"
 preserveAspectRatio="xMidYMid meet">
<metadata>
Created by potrace 1.10, written by Peter Selinger 2001-2011
</metadata>
<g transform="translate(0.000000,300.000000) scale(0.050000,-0.050000)"
fill="#ffffff" stroke="none">
<path d="M86 5988 c7 -7 -10 -42 -37 -77 l-49 -65 0 -2839 0 -2839 81 -84 80
-84 2056 0 2056 0 46 49 c26 28 55 45 64 39 9 -6 17 1304 17 2921 0 2050 -6
2931 -21 2931 -12 0 -16 8 -10 18 6 10 -3 23 -21 30 -42 16 -4278 16 -4262 0z
m4154 -2983 l0 -2845 -2040 0 -2040 0 0 2845 0 2845 2040 0 2040 0 0 -2845z"/>
<path d="M2097 5419 c-232 -35 -425 -118 -597 -259 -61 -50 -118 -77 -176 -85
-219 -29 -341 -250 -286 -518 21 -100 13 -264 -32 -679 -22 -213 111 -441 312
-532 143 -65 173 -81 316 -168 257 -157 697 -224 929 -142 67 24 78 22 148
-25 219 -149 478 24 389 260 -19 48 -11 63 79 162 402 440 380 1160 -50 1624
-73 79 -109 135 -109 169 0 94 -131 162 -219 115 -25 -14 -68 -9 -143 18 -92
32 -392 86 -434 79 -8 -2 -65 -10 -127 -19z m508 -109 c104 -37 101 -84 -9
-138 -76 -38 -65 -140 17 -148 73 -7 105 46 68 113 -16 30 -12 50 17 85 l37
46 115 -69 c656 -394 737 -1347 158 -1857 -104 -91 -361 -229 -392 -209 -46
28 -136 199 -136 258 0 35 -13 75 -29 88 -31 26 -111 11 -111 -20 0 -76 -589
121 -675 225 -50 61 -55 289 -6 302 54 14 51 107 -4 142 -73 46 -147 -57 -90
-124 31 -37 44 -264 15 -264 -44 0 -400 442 -400 497 0 74 278 237 339 199 57
-36 111 1 111 76 0 79 -121 100 -140 24 -8 -31 -41 -58 -97 -82 -48 -19 -117
-66 -155 -104 -163 -165 -155 90 15 413 245 467 870 720 1352 547z m364 -34
c59 -85 34 -97 -69 -34 -119 73 -121 78 -31 78 48 0 78 -13 100 -44z m-1688
-342 c-80 -106 -181 -310 -181 -365 0 -16 -9 -29 -20 -29 -101 0 20 401 140
464 132 69 150 48 61 -70z m-72 -823 c68 -117 192 -260 319 -369 56 -48 112
-117 125 -153 13 -36 39 -89 58 -117 18 -29 29 -70 23 -91 -23 -91 103 -138
153 -57 26 41 -32 116 -89 116 -36 0 -61 32 -97 128 -19 49 -18 49 135 -27 85
-42 226 -92 314 -112 88 -20 176 -53 197 -74 21 -22 51 -32 73 -25 27 8 41 -1
51 -34 7 -25 35 -75 61 -110 63 -83 67 -78 -84 -106 -474 -90 -998 180 -1218
626 -83 168 -138 402 -108 457 26 50 27 49 87 -52z m-122 -206 c18 -110 122
-318 226 -450 103 -132 92 -143 -46 -48 -142 98 -227 268 -227 456 0 147 26
170 47 42z m1993 -731 c0 -153 -179 -227 -344 -142 l-62 32 125 67 c68 36 153
88 188 115 73 57 92 42 93 -72z"/>
<path d="M1941 5071 c-69 -83 39 -174 120 -100 79 71 432 -61 627 -234 l114
-102 -96 -63 c-190 -126 -490 -236 -531 -195 -36 36 -111 27 -134 -16 -52 -97
73 -162 146 -76 25 30 74 56 117 64 100 17 280 98 412 186 123 82 110 89 214
-121 84 -171 108 -321 60 -374 -64 -71 28 -180 101 -119 37 30 38 117 1 131
-15 6 -33 54 -40 111 -17 124 -77 279 -151 389 l-57 84 63 47 c35 25 70 44 79
41 78 -24 127 117 54 156 -59 32 -120 -7 -120 -77 0 -33 -19 -74 -47 -100
l-46 -43 -85 81 c-157 149 -422 278 -574 279 -36 0 -77 17 -98 40 -43 47 -95
52 -129 11z"/>
<path d="M1246 2072 c-817 -266 -634 -1475 224 -1476 978 0 1008 1464 30 1498
-106 3 -202 -5 -254 -22z m403 -358 c348 -196 218 -787 -171 -782 -362 5 -530
471 -261 723 120 113 296 137 432 59z"/>
<path d="M2919 2070 c-429 -137 -643 -649 -442 -1058 213 -431 756 -555 1142
-261 144 110 147 267 7 302 -55 14 -70 7 -226 -102 -410 -287 -934 281 -620
672 101 126 52 215 -60 107 -202 -193 -182 -621 38 -815 214 -187 553 -198
761 -23 43 36 70 47 84 33 29 -29 -111 -137 -243 -187 -441 -167 -935 254
-839 716 100 486 699 700 1042 373 61 -58 124 -56 133 6 24 165 -501 326 -777
237z"/>
</g>
</svg>
